<?xml version="1.0" encoding="UTF-8" standalone="no"?>
<!-- Created with Inkscape (http://www.inkscape.org/) -->

<svg
   xmlns:dc="http://purl.org/dc/elements/1.1/"
   xmlns:cc="http://creativecommons.org/ns#"
   xmlns:rdf="http://www.w3.org/1999/02/22-rdf-syntax-ns#"
   xmlns:svg="http://www.w3.org/2000/svg"
   xmlns="http://www.w3.org/2000/svg"
   xmlns:sodipodi="http://sodipodi.sourceforge.net/DTD/sodipodi-0.dtd"
   xmlns:inkscape="http://www.inkscape.org/namespaces/inkscape"
   width="210mm"
   height="297mm"
   id="svg2"
   version="1.1"
   inkscape:version="0.48.3.1 r9886"
   sodipodi:docname="Zeichnung.svg"
   inkscape:export-filename="/home/valentin/code/Projekt/Zeichnung.png"
   inkscape:export-xdpi="250"
   inkscape:export-ydpi="250">
  <defs
     id="defs4" />
  <sodipodi:namedview
     id="base"
     pagecolor="#ffffff"
     bordercolor="#666666"
     borderopacity="1.0"
     inkscape:pageopacity="0.0"
     inkscape:pageshadow="2"
     inkscape:zoom="1.4142136"
     inkscape:cx="238.39106"
     inkscape:cy="837.34994"
     inkscape:document-units="px"
     inkscape:current-layer="layer1"
     showgrid="true"
     showguides="true"
     inkscape:guide-bbox="true"
     inkscape:window-width="1920"
     inkscape:window-height="1025"
     inkscape:window-x="0"
     inkscape:window-y="27"
     inkscape:window-maximized="1">
    <inkscape:grid
       type="xygrid"
       id="grid6159" />
  </sodipodi:namedview>
  <metadata
     id="metadata7">
    <rdf:RDF>
      <cc:Work
         rdf:about="">
        <dc:format>image/svg+xml</dc:format>
        <dc:type
           rdf:resource="http://purl.org/dc/dcmitype/StillImage" />
        <dc:title></dc:title>
      </cc:Work>
    </rdf:RDF>
  </metadata>
  <g
     inkscape:label="Ebene 1"
     inkscape:groupmode="layer"
     id="layer1">
    <path
       sodipodi:type="arc"
       style="fill:none;stroke:#000000;stroke-width:0.62812835;stroke-miterlimit:4;stroke-opacity:1;stroke-dasharray:none"
       id="path3015"
       sodipodi:cx="226.16072"
       sodipodi:cy="226.29076"
       sodipodi:rx="5.4464288"
       sodipodi:ry="5"
       d="m 231.60715,226.29076 a 5.4464288,5 0 1 1 -10.89286,0 5.4464288,5 0 1 1 10.89286,0 z"
       transform="matrix(3.3753419,0,0,3.3114945,-600.74955,-527.35614)" />
    <path
       sodipodi:type="arc"
       style="fill:none;stroke:#000000;stroke-width:0.62812835;stroke-miterlimit:4;stroke-opacity:1;stroke-dasharray:none"
       id="path3015-6"
       sodipodi:cx="226.16072"
       sodipodi:cy="226.29076"
       sodipodi:rx="5.4464288"
       sodipodi:ry="5"
       d="m 231.60715,226.29076 a 5.4464288,5 0 1 1 -10.89286,0 5.4464288,5 0 1 1 10.89286,0 z"
       transform="matrix(3.3753419,0,0,3.3114945,-530.74955,-527.35614)" />
    <path
       sodipodi:type="arc"
       style="fill:none;stroke:#000000;stroke-width:0.62812835;stroke-miterlimit:4;stroke-opacity:1;stroke-dasharray:none"
       id="path3015-4"
       sodipodi:cx="226.16072"
       sodipodi:cy="226.29076"
       sodipodi:rx="5.4464288"
       sodipodi:ry="5"
       d="m 231.60715,226.29076 a 5.4464288,5 0 1 1 -10.89286,0 5.4464288,5 0 1 1 10.89286,0 z"
       transform="matrix(3.3753419,0,0,3.3114945,-465.74955,-472.35614)" />
    <path
       sodipodi:type="arc"
       style="fill:none;stroke:#000000;stroke-width:0.62812835;stroke-miterlimit:4;stroke-opacity:1;stroke-dasharray:none"
       id="path3015-2"
       sodipodi:cx="226.16072"
       sodipodi:cy="226.29076"
       sodipodi:rx="5.4464288"
       sodipodi:ry="5"
       d="m 231.60715,226.29076 a 5.4464288,5 0 1 1 -10.89286,0 5.4464288,5 0 1 1 10.89286,0 z"
       transform="matrix(3.3753419,0,0,3.3114945,-465.74955,-527.35614)" />
    <path
       sodipodi:type="arc"
       style="fill:none;stroke:#000000;stroke-width:0.39595377;stroke-miterlimit:4;stroke-opacity:1;stroke-dasharray:none"
       id="path3015-1"
       sodipodi:cx="226.16072"
       sodipodi:cy="226.29076"
       sodipodi:rx="5.4464288"
       sodipodi:ry="5"
       d="m 231.60715,226.29076 a 5.4464288,5 0 1 1 -10.89286,0 5.4464288,5 0 1 1 10.89286,0 z"
       transform="matrix(-8.4942607,0,0,3.3114945,2154.0719,-356.79867)" />
    <path
       sodipodi:type="arc"
       style="fill:none;stroke:#000000;stroke-width:0.62812835;stroke-miterlimit:4;stroke-opacity:1;stroke-dasharray:none"
       id="path3015-0"
       sodipodi:cx="226.16072"
       sodipodi:cy="226.29076"
       sodipodi:rx="5.4464288"
       sodipodi:ry="5"
       d="m 231.60715,226.29076 a 5.4464288,5 0 1 1 -10.89286,0 5.4464288,5 0 1 1 10.89286,0 z"
       transform="matrix(3.3753419,0,0,3.3114945,-600.74955,-412.35614)" />
    <path
       sodipodi:type="arc"
       style="fill:none;stroke:#000000;stroke-width:0.62812835;stroke-miterlimit:4;stroke-opacity:1;stroke-dasharray:none"
       id="path3015-9"
       sodipodi:cx="226.16072"
       sodipodi:cy="226.29076"
       sodipodi:rx="5.4464288"
       sodipodi:ry="5"
       d="m 231.60715,226.29076 a 5.4464288,5 0 1 1 -10.89286,0 5.4464288,5 0 1 1 10.89286,0 z"
       transform="matrix(3.3753419,0,0,3.3114945,-530.74955,-472.35614)" />
    <path
       sodipodi:type="arc"
       style="fill:none;stroke:#000000;stroke-width:0.62812835;stroke-miterlimit:4;stroke-opacity:1;stroke-dasharray:none"
       id="path3015-3"
       sodipodi:cx="226.16072"
       sodipodi:cy="226.29076"
       sodipodi:rx="5.4464288"
       sodipodi:ry="5"
       d="m 231.60715,226.29076 a 5.4464288,5 0 1 1 -10.89286,0 5.4464288,5 0 1 1 10.89286,0 z"
       transform="matrix(3.3753419,0,0,3.3114945,-600.74955,-472.35614)" />
    <path
       sodipodi:type="arc"
       style="fill:none;stroke:#000000;stroke-width:0.62812835;stroke-miterlimit:4;stroke-opacity:1;stroke-dasharray:none"
       id="path3015-28"
       sodipodi:cx="226.16072"
       sodipodi:cy="226.29076"
       sodipodi:rx="5.4464288"
       sodipodi:ry="5"
       d="m 231.60715,226.29076 a 5.4464288,5 0 1 1 -10.89286,0 5.4464288,5 0 1 1 10.89286,0 z"
       transform="matrix(3.3753419,0,0,3.3114945,-465.74955,-412.35614)" />
    <path
       sodipodi:type="arc"
       style="fill:none;stroke:#000000;stroke-width:0.62812835;stroke-miterlimit:4;stroke-opacity:1;stroke-dasharray:none"
       id="path3015-5"
       sodipodi:cx="226.16072"
       sodipodi:cy="226.29076"
       sodipodi:rx="5.4464288"
       sodipodi:ry="5"
       d="m 231.60715,226.29076 a 5.4464288,5 0 1 1 -10.89286,0 5.4464288,5 0 1 1 10.89286,0 z"
       transform="matrix(3.3753419,0,0,3.3114945,-530.74955,-412.35614)" />
    <rect
       style="fill:none;stroke:#000000;stroke-width:2.9869771;stroke-opacity:1"
       id="rect3095"
       width="531.43665"
       height="316.34622"
       x="98.563354"
       y="116.04228" />
    <path
       sodipodi:type="arc"
       style="fill:none;stroke:#000000;stroke-width:8.91508389;stroke-miterlimit:4;stroke-opacity:1;stroke-dasharray:none"
       id="path5477-22"
       sodipodi:cx="455"
       sodipodi:cy="397.71933"
       sodipodi:rx="40.134956"
       sodipodi:ry="48.214287"
       d="m 480.79825,360.78504 a 40.134956,48.214287 0 0 1 0,73.86858"
       transform="matrix(0.76559094,0,0,0.64196652,87.93666,84.682723)"
       sodipodi:start="5.4105207"
       sodipodi:end="7.1558499"
       sodipodi:open="true" />
    <path
       sodipodi:type="arc"
       style="fill:none;stroke:#000000;stroke-width:6.59024239;stroke-miterlimit:4;stroke-opacity:1;stroke-dasharray:none"
       id="path5477-38-7"
       sodipodi:cx="455"
       sodipodi:cy="397.71933"
       sodipodi:rx="45.404453"
       sodipodi:ry="48.214287"
       d="m 484.18542,360.78504 a 45.404453,48.214287 0 0 1 0,73.86858"
       transform="matrix(0.94149305,0,0,0.95530078,17.907326,-39.694245)"
       sodipodi:start="5.4105207"
       sodipodi:end="7.1558499"
       sodipodi:open="true" />
    <path
       sodipodi:type="arc"
       style="fill:none;stroke:#000000;stroke-width:12.60075951;stroke-miterlimit:4;stroke-opacity:1;stroke-dasharray:none"
       id="path5477-3-9"
       sodipodi:cx="455"
       sodipodi:cy="397.71933"
       sodipodi:rx="31.401237"
       sodipodi:ry="47.385799"
       d="m 475.18433,361.4197 a 31.401237,47.385799 0 0 1 0,72.59926"
       transform="matrix(0.56445046,0,0,0.4358537,174.09473,167.08006)"
       sodipodi:start="5.4105207"
       sodipodi:end="7.1558499"
       sodipodi:open="true" />
    <path
       sodipodi:type="arc"
       style="fill:#000000;fill-opacity:1"
       id="path3015-65"
       sodipodi:cx="226.16072"
       sodipodi:cy="226.29076"
       sodipodi:rx="5.4464288"
       sodipodi:ry="5"
       d="m 231.60715,226.29076 a 5.4464288,5 0 1 1 -10.89286,0 5.4464288,5 0 1 1 10.89286,0 z"
       transform="matrix(0.79780817,0,0,0.782717,248.39683,5.272267)" />
    <path
       sodipodi:type="arc"
       style="fill:#000000;fill-opacity:1"
       id="path3015-65-3"
       sodipodi:cx="226.16072"
       sodipodi:cy="226.29076"
       sodipodi:rx="5.4464288"
       sodipodi:ry="5"
       d="m 231.60715,226.29076 a 5.4464288,5 0 1 1 -10.89286,0 5.4464288,5 0 1 1 10.89286,0 z"
       transform="matrix(0.79780817,0,0,0.782717,267.17595,-2.795958)" />
    <path
       sodipodi:type="arc"
       style="fill:#000000;fill-opacity:1"
       id="path3015-65-6"
       sodipodi:cx="226.16072"
       sodipodi:cy="226.29076"
       sodipodi:rx="5.4464288"
       sodipodi:ry="5"
       d="m 231.60715,226.29076 a 5.4464288,5 0 1 1 -10.89286,0 5.4464288,5 0 1 1 10.89286,0 z"
       transform="matrix(0.79780817,0,0,0.782717,338.38139,-2.795958)" />
    <path
       sodipodi:type="arc"
       style="fill:#000000;fill-opacity:1"
       id="path3015-65-7"
       sodipodi:cx="226.16072"
       sodipodi:cy="226.29076"
       sodipodi:rx="5.4464288"
       sodipodi:ry="5"
       d="m 231.60715,226.29076 a 5.4464288,5 0 1 1 -10.89286,0 5.4464288,5 0 1 1 10.89286,0 z"
       transform="matrix(0.79780817,0,0,0.782717,291.24719,-7.232408)" />
    <path
       sodipodi:type="arc"
       style="fill:#000000;fill-opacity:1"
       id="path3015-65-64"
       sodipodi:cx="226.16072"
       sodipodi:cy="226.29076"
       sodipodi:rx="5.4464288"
       sodipodi:ry="5"
       d="m 231.60715,226.29076 a 5.4464288,5 0 1 1 -10.89286,0 5.4464288,5 0 1 1 10.89286,0 z"
       transform="matrix(0.79780817,0,0,0.782717,313.31292,45.127613)" />
    <path
       sodipodi:type="arc"
       style="fill:#000000;fill-opacity:1"
       id="path3015-65-2"
       sodipodi:cx="226.16072"
       sodipodi:cy="226.29076"
       sodipodi:rx="5.4464288"
       sodipodi:ry="5"
       d="m 231.60715,226.29076 a 5.4464288,5 0 1 1 -10.89286,0 5.4464288,5 0 1 1 10.89286,0 z"
       transform="matrix(0.79780817,0,0,0.782717,267.17595,41.877983)" />
    <path
       sodipodi:type="arc"
       style="fill:#000000;fill-opacity:1"
       id="path3015-65-5"
       sodipodi:cx="226.16072"
       sodipodi:cy="226.29076"
       sodipodi:rx="5.4464288"
       sodipodi:ry="5"
       d="m 231.60715,226.29076 a 5.4464288,5 0 1 1 -10.89286,0 5.4464288,5 0 1 1 10.89286,0 z"
       transform="matrix(0.79780817,0,0,0.782717,313.3129,-7.232408)" />
    <path
       sodipodi:type="arc"
       style="fill:#000000;fill-opacity:1"
       id="path3015-65-0"
       sodipodi:cx="226.16072"
       sodipodi:cy="226.29076"
       sodipodi:rx="5.4464288"
       sodipodi:ry="5"
       d="m 231.60715,226.29076 a 5.4464288,5 0 1 1 -10.89286,0 5.4464288,5 0 1 1 10.89286,0 z"
       transform="matrix(0.79780817,0,0,0.782717,249.34219,32.943803)" />
    <path
       sodipodi:type="arc"
       style="fill:#000000;fill-opacity:1"
       id="path3015-65-56"
       sodipodi:cx="226.16072"
       sodipodi:cy="226.29076"
       sodipodi:rx="5.4464288"
       sodipodi:ry="5"
       d="m 231.60715,226.29076 a 5.4464288,5 0 1 1 -10.89286,0 5.4464288,5 0 1 1 10.89286,0 z"
       transform="matrix(0.79780817,0,0,0.782717,358.56772,32.943803)" />
    <path
       sodipodi:type="arc"
       style="fill:#000000;fill-opacity:1"
       id="path3015-65-1"
       sodipodi:cx="226.16072"
       sodipodi:cy="226.29076"
       sodipodi:rx="5.4464288"
       sodipodi:ry="5"
       d="m 231.60715,226.29076 a 5.4464288,5 0 1 1 -10.89286,0 5.4464288,5 0 1 1 10.89286,0 z"
       transform="matrix(0.79780817,0,0,0.782717,338.38139,41.877983)" />
    <path
       sodipodi:type="arc"
       style="fill:#000000;fill-opacity:1"
       id="path3015-65-08"
       sodipodi:cx="226.16072"
       sodipodi:cy="226.29076"
       sodipodi:rx="5.4464288"
       sodipodi:ry="5"
       d="m 231.60715,226.29076 a 5.4464288,5 0 1 1 -10.89286,0 5.4464288,5 0 1 1 10.89286,0 z"
       transform="matrix(0.79780817,0,0,0.782717,358.05444,5.272267)" />
    <path
       sodipodi:type="arc"
       style="fill:#000000;fill-opacity:1"
       id="path3015-65-9"
       sodipodi:cx="226.16072"
       sodipodi:cy="226.29076"
       sodipodi:rx="5.4464288"
       sodipodi:ry="5"
       d="m 231.60715,226.29076 a 5.4464288,5 0 1 1 -10.89286,0 5.4464288,5 0 1 1 10.89286,0 z"
       transform="matrix(0.79780817,0,0,0.782717,260.30071,18.813613)" />
    <path
       sodipodi:type="arc"
       style="fill:#000000;fill-opacity:1"
       id="path3015-65-09"
       sodipodi:cx="226.16072"
       sodipodi:cy="226.29076"
       sodipodi:rx="5.4464288"
       sodipodi:ry="5"
       d="m 231.60715,226.29076 a 5.4464288,5 0 1 1 -10.89286,0 5.4464288,5 0 1 1 10.89286,0 z"
       transform="matrix(0.79780817,0,0,0.782717,301.89843,3.853412)"
       inkscape:transform-center-x="-10.027396"
       inkscape:transform-center-y="13.121016" />
    <path
       sodipodi:type="arc"
       style="fill:#000000;fill-opacity:1"
       id="path3015-65-8"
       sodipodi:cx="226.16072"
       sodipodi:cy="226.29076"
       sodipodi:rx="5.4464288"
       sodipodi:ry="5"
       d="m 231.60715,226.29076 a 5.4464288,5 0 1 1 -10.89286,0 5.4464288,5 0 1 1 10.89286,0 z"
       transform="matrix(0.79780817,0,0,0.782717,342.04717,18.813613)" />
    <path
       sodipodi:type="arc"
       style="fill:#000000;fill-opacity:1"
       id="path3015-65-17"
       sodipodi:cx="226.16072"
       sodipodi:cy="226.29076"
       sodipodi:rx="5.4464288"
       sodipodi:ry="5"
       d="m 231.60715,226.29076 a 5.4464288,5 0 1 1 -10.89286,0 5.4464288,5 0 1 1 10.89286,0 z"
       transform="matrix(0.79780817,0,0,0.782717,291.24719,45.127613)" />
    <path
       sodipodi:type="arc"
       style="fill:#000000;fill-opacity:1"
       id="path3015-65-05"
       sodipodi:cx="226.16072"
       sodipodi:cy="226.29076"
       sodipodi:rx="5.4464288"
       sodipodi:ry="5"
       d="m 231.60715,226.29076 a 5.4464288,5 0 1 1 -10.89286,0 5.4464288,5 0 1 1 10.89286,0 z"
       transform="matrix(0.79780817,0,0,0.782717,326.66634,27.717933)" />
    <path
       sodipodi:type="arc"
       style="fill:#000000;fill-opacity:1"
       id="path3015-65-03"
       sodipodi:cx="226.16072"
       sodipodi:cy="226.29076"
       sodipodi:rx="5.4464288"
       sodipodi:ry="5"
       d="m 231.60715,226.29076 a 5.4464288,5 0 1 1 -10.89286,0 5.4464288,5 0 1 1 10.89286,0 z"
       transform="matrix(0.79780817,0,0,0.782717,238.08553,19.584853)" />
    <path
       sodipodi:type="arc"
       style="fill:#000000;fill-opacity:1"
       id="path3015-65-35"
       sodipodi:cx="226.16072"
       sodipodi:cy="226.29076"
       sodipodi:rx="5.4464288"
       sodipodi:ry="5"
       d="m 231.60715,226.29076 a 5.4464288,5 0 1 1 -10.89286,0 5.4464288,5 0 1 1 10.89286,0 z"
       transform="matrix(0.79780817,0,0,0.782717,365.20939,19.584853)" />
    <path
       sodipodi:type="arc"
       style="fill:#000000;fill-opacity:1"
       id="path3015-65-09-1"
       sodipodi:cx="226.16072"
       sodipodi:cy="226.29076"
       sodipodi:rx="5.4464288"
       sodipodi:ry="5"
       d="m 231.60715,226.29076 a 5.4464288,5 0 1 1 -10.89286,0 5.4464288,5 0 1 1 10.89286,0 z"
       transform="matrix(0.79780817,0,0,0.782717,291.89843,16.732803)"
       inkscape:transform-center-x="-10.027396"
       inkscape:transform-center-y="13.121016" />
    <path
       sodipodi:type="arc"
       style="fill:#000000;fill-opacity:1"
       id="path3015-65-09-5"
       sodipodi:cx="226.16072"
       sodipodi:cy="226.29076"
       sodipodi:rx="5.4464288"
       sodipodi:ry="5"
       d="m 231.60715,226.29076 a 5.4464288,5 0 1 1 -10.89286,0 5.4464288,5 0 1 1 10.89286,0 z"
       transform="matrix(0.79780817,0,0,0.782717,313.36065,16.268333)"
       inkscape:transform-center-x="-10.027396"
       inkscape:transform-center-y="13.121016" />
    <path
       transform="matrix(0.79780817,0,0,0.782717,248.39683,5.272267)"
       d="m 231.60715,226.29076 a 5.4464288,5 0 1 1 -10.89286,0 5.4464288,5 0 1 1 10.89286,0 z"
       sodipodi:ry="5"
       sodipodi:rx="5.4464288"
       sodipodi:cy="226.29076"
       sodipodi:cx="226.16072"
       id="path5746"
       style="fill:#000000;fill-opacity:1"
       sodipodi:type="arc" />
    <path
       transform="matrix(0.79780817,0,0,0.782717,267.17595,-2.795958)"
       d="m 231.60715,226.29076 a 5.4464288,5 0 1 1 -10.89286,0 5.4464288,5 0 1 1 10.89286,0 z"
       sodipodi:ry="5"
       sodipodi:rx="5.4464288"
       sodipodi:cy="226.29076"
       sodipodi:cx="226.16072"
       id="path5748"
       style="fill:#000000;fill-opacity:1"
       sodipodi:type="arc" />
    <path
       transform="matrix(0.79780817,0,0,0.782717,338.38139,-2.795958)"
       d="m 231.60715,226.29076 a 5.4464288,5 0 1 1 -10.89286,0 5.4464288,5 0 1 1 10.89286,0 z"
       sodipodi:ry="5"
       sodipodi:rx="5.4464288"
       sodipodi:cy="226.29076"
       sodipodi:cx="226.16072"
       id="path5750"
       style="fill:#000000;fill-opacity:1"
       sodipodi:type="arc" />
    <path
       transform="matrix(0.79780817,0,0,0.782717,291.24719,-7.232408)"
       d="m 231.60715,226.29076 a 5.4464288,5 0 1 1 -10.89286,0 5.4464288,5 0 1 1 10.89286,0 z"
       sodipodi:ry="5"
       sodipodi:rx="5.4464288"
       sodipodi:cy="226.29076"
       sodipodi:cx="226.16072"
       id="path5752"
       style="fill:#000000;fill-opacity:1"
       sodipodi:type="arc" />
    <path
       transform="matrix(0.79780817,0,0,0.782717,313.31292,45.127613)"
       d="m 231.60715,226.29076 a 5.4464288,5 0 1 1 -10.89286,0 5.4464288,5 0 1 1 10.89286,0 z"
       sodipodi:ry="5"
       sodipodi:rx="5.4464288"
       sodipodi:cy="226.29076"
       sodipodi:cx="226.16072"
       id="path5754"
       style="fill:#000000;fill-opacity:1"
       sodipodi:type="arc" />
    <path
       transform="matrix(0.79780817,0,0,0.782717,267.17595,41.877983)"
       d="m 231.60715,226.29076 a 5.4464288,5 0 1 1 -10.89286,0 5.4464288,5 0 1 1 10.89286,0 z"
       sodipodi:ry="5"
       sodipodi:rx="5.4464288"
       sodipodi:cy="226.29076"
       sodipodi:cx="226.16072"
       id="path5756"
       style="fill:#000000;fill-opacity:1"
       sodipodi:type="arc" />
    <path
       transform="matrix(0.79780817,0,0,0.782717,313.3129,-7.232408)"
       d="m 231.60715,226.29076 a 5.4464288,5 0 1 1 -10.89286,0 5.4464288,5 0 1 1 10.89286,0 z"
       sodipodi:ry="5"
       sodipodi:rx="5.4464288"
       sodipodi:cy="226.29076"
       sodipodi:cx="226.16072"
       id="path5758"
       style="fill:#000000;fill-opacity:1"
       sodipodi:type="arc" />
    <path
       transform="matrix(0.79780817,0,0,0.782717,249.34219,32.943803)"
       d="m 231.60715,226.29076 a 5.4464288,5 0 1 1 -10.89286,0 5.4464288,5 0 1 1 10.89286,0 z"
       sodipodi:ry="5"
       sodipodi:rx="5.4464288"
       sodipodi:cy="226.29076"
       sodipodi:cx="226.16072"
       id="path5760"
       style="fill:#000000;fill-opacity:1"
       sodipodi:type="arc" />
    <path
       transform="matrix(0.79780817,0,0,0.782717,277.88004,27.717933)"
       d="m 231.60715,226.29076 a 5.4464288,5 0 1 1 -10.89286,0 5.4464288,5 0 1 1 10.89286,0 z"
       sodipodi:ry="5"
       sodipodi:rx="5.4464288"
       sodipodi:cy="226.29076"
       sodipodi:cx="226.16072"
       id="path5762"
       style="fill:#000000;fill-opacity:1"
       sodipodi:type="arc" />
    <path
       transform="matrix(0.79780817,0,0,0.782717,358.56772,32.943803)"
       d="m 231.60715,226.29076 a 5.4464288,5 0 1 1 -10.89286,0 5.4464288,5 0 1 1 10.89286,0 z"
       sodipodi:ry="5"
       sodipodi:rx="5.4464288"
       sodipodi:cy="226.29076"
       sodipodi:cx="226.16072"
       id="path5764"
       style="fill:#000000;fill-opacity:1"
       sodipodi:type="arc" />
    <path
       transform="matrix(0.79780817,0,0,0.782717,338.38139,41.877983)"
       d="m 231.60715,226.29076 a 5.4464288,5 0 1 1 -10.89286,0 5.4464288,5 0 1 1 10.89286,0 z"
       sodipodi:ry="5"
       sodipodi:rx="5.4464288"
       sodipodi:cy="226.29076"
       sodipodi:cx="226.16072"
       id="path5766"
       style="fill:#000000;fill-opacity:1"
       sodipodi:type="arc" />
    <path
       transform="matrix(0.79780817,0,0,0.782717,358.05444,5.272267)"
       d="m 231.60715,226.29076 a 5.4464288,5 0 1 1 -10.89286,0 5.4464288,5 0 1 1 10.89286,0 z"
       sodipodi:ry="5"
       sodipodi:rx="5.4464288"
       sodipodi:cy="226.29076"
       sodipodi:cx="226.16072"
       id="path5768"
       style="fill:#000000;fill-opacity:1"
       sodipodi:type="arc" />
    <path
       transform="matrix(0.79780817,0,0,0.782717,301.89843,30.788393)"
       d="m 231.60715,226.29076 a 5.4464288,5 0 1 1 -10.89286,0 5.4464288,5 0 1 1 10.89286,0 z"
       sodipodi:ry="5"
       sodipodi:rx="5.4464288"
       sodipodi:cy="226.29076"
       sodipodi:cx="226.16072"
       id="path5770"
       style="fill:#000000;fill-opacity:1"
       sodipodi:type="arc" />
    <path
       transform="matrix(0.79780817,0,0,0.782717,260.30071,18.813613)"
       d="m 231.60715,226.29076 a 5.4464288,5 0 1 1 -10.89286,0 5.4464288,5 0 1 1 10.89286,0 z"
       sodipodi:ry="5"
       sodipodi:rx="5.4464288"
       sodipodi:cy="226.29076"
       sodipodi:cx="226.16072"
       id="path5772"
       style="fill:#000000;fill-opacity:1"
       sodipodi:type="arc" />
    <path
       transform="matrix(0.79780817,0,0,0.782717,277.88004,8.444132)"
       d="m 231.60715,226.29076 a 5.4464288,5 0 1 1 -10.89286,0 5.4464288,5 0 1 1 10.89286,0 z"
       sodipodi:ry="5"
       sodipodi:rx="5.4464288"
       sodipodi:cy="226.29076"
       sodipodi:cx="226.16072"
       id="path5776"
       style="fill:#000000;fill-opacity:1"
       sodipodi:type="arc" />
    <path
       transform="matrix(0.79780817,0,0,0.782717,342.04717,18.813613)"
       d="m 231.60715,226.29076 a 5.4464288,5 0 1 1 -10.89286,0 5.4464288,5 0 1 1 10.89286,0 z"
       sodipodi:ry="5"
       sodipodi:rx="5.4464288"
       sodipodi:cy="226.29076"
       sodipodi:cx="226.16072"
       id="path5778"
       style="fill:#000000;fill-opacity:1"
       sodipodi:type="arc" />
    <path
       transform="matrix(0.79780817,0,0,0.782717,291.24719,45.127613)"
       d="m 231.60715,226.29076 a 5.4464288,5 0 1 1 -10.89286,0 5.4464288,5 0 1 1 10.89286,0 z"
       sodipodi:ry="5"
       sodipodi:rx="5.4464288"
       sodipodi:cy="226.29076"
       sodipodi:cx="226.16072"
       id="path5780"
       style="fill:#000000;fill-opacity:1"
       sodipodi:type="arc" />
    <path
       transform="matrix(0.79780817,0,0,0.782717,326.66634,27.717933)"
       d="m 231.60715,226.29076 a 5.4464288,5 0 1 1 -10.89286,0 5.4464288,5 0 1 1 10.89286,0 z"
       sodipodi:ry="5"
       sodipodi:rx="5.4464288"
       sodipodi:cy="226.29076"
       sodipodi:cx="226.16072"
       id="path5782"
       style="fill:#000000;fill-opacity:1"
       sodipodi:type="arc" />
    <path
       transform="matrix(0.79780817,0,0,0.782717,326.66634,8.444132)"
       d="m 231.60715,226.29076 a 5.4464288,5 0 1 1 -10.89286,0 5.4464288,5 0 1 1 10.89286,0 z"
       sodipodi:ry="5"
       sodipodi:rx="5.4464288"
       sodipodi:cy="226.29076"
       sodipodi:cx="226.16072"
       id="path5784"
       style="fill:#000000;fill-opacity:1"
       sodipodi:type="arc" />
    <path
       transform="matrix(0.79780817,0,0,0.782717,238.08553,19.584853)"
       d="m 231.60715,226.29076 a 5.4464288,5 0 1 1 -10.89286,0 5.4464288,5 0 1 1 10.89286,0 z"
       sodipodi:ry="5"
       sodipodi:rx="5.4464288"
       sodipodi:cy="226.29076"
       sodipodi:cx="226.16072"
       id="path5786"
       style="fill:#000000;fill-opacity:1"
       sodipodi:type="arc" />
    <path
       transform="matrix(0.79780817,0,0,0.782717,365.20939,19.584853)"
       d="m 231.60715,226.29076 a 5.4464288,5 0 1 1 -10.89286,0 5.4464288,5 0 1 1 10.89286,0 z"
       sodipodi:ry="5"
       sodipodi:rx="5.4464288"
       sodipodi:cy="226.29076"
       sodipodi:cx="226.16072"
       id="path5788"
       style="fill:#000000;fill-opacity:1"
       sodipodi:type="arc" />
    <path
       inkscape:transform-center-y="13.121016"
       inkscape:transform-center-x="-10.027396"
       transform="matrix(0.79780817,0,0,0.782717,291.89843,16.732803)"
       d="m 231.60715,226.29076 a 5.4464288,5 0 1 1 -10.89286,0 5.4464288,5 0 1 1 10.89286,0 z"
       sodipodi:ry="5"
       sodipodi:rx="5.4464288"
       sodipodi:cy="226.29076"
       sodipodi:cx="226.16072"
       id="path5790"
       style="fill:#000000;fill-opacity:1"
       sodipodi:type="arc" />
    <path
       inkscape:transform-center-y="13.121016"
       inkscape:transform-center-x="-10.027396"
       transform="matrix(0.79780817,0,0,0.782717,313.36065,16.268333)"
       d="m 231.60715,226.29076 a 5.4464288,5 0 1 1 -10.89286,0 5.4464288,5 0 1 1 10.89286,0 z"
       sodipodi:ry="5"
       sodipodi:rx="5.4464288"
       sodipodi:cy="226.29076"
       sodipodi:cx="226.16072"
       id="path5792"
       style="fill:#000000;fill-opacity:1"
       sodipodi:type="arc" />
    <path
       sodipodi:type="arc"
       style="fill:none;stroke:#000000;stroke-width:1.91903353;stroke-miterlimit:4;stroke-opacity:1;stroke-dasharray:none"
       id="path5844"
       sodipodi:cx="194.20183"
       sodipodi:cy="239.69446"
       sodipodi:rx="32.577419"
       sodipodi:ry="29.294424"
       d="m 226.77925,239.69446 a 32.577419,29.294424 0 1 1 -65.15484,0 32.577419,29.294424 0 1 1 65.15484,0 z"
       transform="matrix(1.269377,0,0,0.95689655,-52.097755,-70.83445)" />
    <path
       sodipodi:type="arc"
       style="fill:#00e700;fill-opacity:1;stroke:none"
       id="path5848"
       sodipodi:cx="201.02036"
       sodipodi:cy="239.69446"
       sodipodi:rx="4.5456862"
       sodipodi:ry="4.5456862"
       d="m 205.56604,239.69446 a 4.5456862,4.5456862 0 1 1 -9.09137,0 4.5456862,4.5456862 0 1 1 9.09137,0 z"
       transform="translate(87.93234,-73.58996)" />
    <path
       sodipodi:type="arc"
       style="fill:#e80000;fill-opacity:1;stroke:none"
       id="path5850"
       sodipodi:cx="214.90996"
       sodipodi:cy="243.48253"
       sodipodi:rx="4.2931485"
       sodipodi:ry="4.2931485"
       d="m 219.20311,243.48253 a 4.2931485,4.2931485 0 1 1 -8.5863,0 4.2931485,4.2931485 0 1 1 8.5863,0 z"
       transform="translate(87.93234,-77.37803)" />
    <text
       xml:space="preserve"
       style="font-size:20px;font-style:normal;font-weight:normal;line-height:125%;letter-spacing:0px;word-spacing:0px;fill:#000000;fill-opacity:1;stroke:none;font-family:Sans"
       x="112.14286"
       y="310.93362"
       id="text5913"
       sodipodi:linespacing="125%"><tspan
         sodipodi:role="line"
         id="tspan5915"
         x="112.14286"
         y="310.93362" /></text>
    <text
       xml:space="preserve"
       style="font-size:20px;font-style:normal;font-weight:normal;line-height:125%;letter-spacing:0px;word-spacing:0px;fill:#000000;fill-opacity:1;stroke:none;font-family:Sans"
       x="157.00377"
       y="229.00446"
       id="text5917"
       sodipodi:linespacing="125%"><tspan
         sodipodi:role="line"
         id="tspan5919"
         x="157.00377"
         y="229.00446">1</tspan></text>
    <text
       xml:space="preserve"
       style="font-size:20px;font-style:normal;font-weight:normal;line-height:125%;letter-spacing:0px;word-spacing:0px;fill:#000000;fill-opacity:1;stroke:none;font-family:Sans"
       x="227.00375"
       y="229.00446"
       id="text5921"
       sodipodi:linespacing="125%"><tspan
         sodipodi:role="line"
         id="tspan5923"
         x="227.00375"
         y="229.00446">2</tspan></text>
    <text
       xml:space="preserve"
       style="font-size:20px;font-style:normal;font-weight:normal;line-height:125%;letter-spacing:0px;word-spacing:0px;fill:#000000;fill-opacity:1;stroke:none;font-family:Sans"
       x="292.00375"
       y="229.00446"
       id="text5925"
       sodipodi:linespacing="125%"><tspan
         sodipodi:role="line"
         id="tspan5927"
         x="292.00375"
         y="229.00446">3</tspan></text>
    <text
       xml:space="preserve"
       style="font-size:20px;font-style:normal;font-weight:normal;line-height:125%;letter-spacing:0px;word-spacing:0px;fill:#000000;fill-opacity:1;stroke:none;font-family:Sans"
       x="156.00377"
       y="284.00446"
       id="text5929"
       sodipodi:linespacing="125%"><tspan
         sodipodi:role="line"
         id="tspan5931"
         x="156.00377"
         y="284.00446">4</tspan></text>
    <text
       xml:space="preserve"
       style="font-size:20px;font-style:normal;font-weight:normal;line-height:125%;letter-spacing:0px;word-spacing:0px;fill:#000000;fill-opacity:1;stroke:none;font-family:Sans"
       x="226.00375"
       y="284.00446"
       id="text5933"
       sodipodi:linespacing="125%"><tspan
         sodipodi:role="line"
         id="tspan5935"
         x="226.00375"
         y="284.00446">5</tspan></text>
    <text
       xml:space="preserve"
       style="font-size:20px;font-style:normal;font-weight:normal;line-height:125%;letter-spacing:0px;word-spacing:0px;fill:#000000;fill-opacity:1;stroke:none;font-family:Sans"
       x="291.00375"
       y="284.00446"
       id="text5937"
       sodipodi:linespacing="125%"><tspan
         sodipodi:role="line"
         id="tspan5939"
         x="291.00375"
         y="284.00446">6</tspan></text>
    <text
       xml:space="preserve"
       style="font-size:20px;font-style:normal;font-weight:normal;line-height:125%;letter-spacing:0px;word-spacing:0px;fill:#000000;fill-opacity:1;stroke:none;font-family:Sans"
       x="156.00377"
       y="344.00446"
       id="text5941"
       sodipodi:linespacing="125%"><tspan
         sodipodi:role="line"
         id="tspan5943"
         x="156.00377"
         y="344.00446">7</tspan></text>
    <text
       xml:space="preserve"
       style="font-size:20px;font-style:normal;font-weight:normal;line-height:125%;letter-spacing:0px;word-spacing:0px;fill:#000000;fill-opacity:1;stroke:none;font-family:Sans"
       x="226.00375"
       y="344.00446"
       id="text5945"
       sodipodi:linespacing="125%"><tspan
         sodipodi:role="line"
         id="tspan5947"
         x="226.00375"
         y="344.00446">8</tspan></text>
    <text
       xml:space="preserve"
       style="font-size:20px;font-style:normal;font-weight:normal;line-height:125%;letter-spacing:0px;word-spacing:0px;fill:#000000;fill-opacity:1;stroke:none;font-family:Sans"
       x="292.00375"
       y="344.00446"
       id="text5949"
       sodipodi:linespacing="125%"><tspan
         sodipodi:role="line"
         id="tspan5951"
         x="292.00375"
         y="344.00446">9</tspan></text>
    <text
       xml:space="preserve"
       style="font-size:20px;font-style:normal;font-weight:normal;line-height:125%;letter-spacing:0px;word-spacing:0px;fill:#000000;fill-opacity:1;stroke:none;font-family:Sans"
       x="200.00377"
       y="399.14731"
       id="text5953"
       sodipodi:linespacing="125%"><tspan
         sodipodi:role="line"
         id="tspan5955"
         x="200.00377"
         y="399.14731">ENTER</tspan></text>
    <text
       xml:space="preserve"
       style="font-size:29.63544273px;font-style:normal;font-weight:normal;line-height:125%;letter-spacing:0px;word-spacing:0px;fill:#000000;fill-opacity:1;stroke:none;font-family:Sans"
       x="170.05978"
       y="170.83211"
       id="text5957"
       sodipodi:linespacing="125%"
       transform="scale(1.006506,0.99353606)"><tspan
         sodipodi:role="line"
         id="tspan5959"
         x="170.05978"
         y="170.83211">ON</tspan></text>
    <path
       sodipodi:type="arc"
       style="fill:none;stroke:#000000;stroke-width:1.14535165;stroke-miterlimit:4;stroke-opacity:1;stroke-dasharray:none"
       id="path5477-38-7-2"
       sodipodi:cx="455"
       sodipodi:cy="397.71933"
       sodipodi:rx="38.943733"
       sodipodi:ry="38.464291"
       d="m 493.94373,397.71933 a 38.943733,38.464291 0 1 1 -77.88746,0 38.943733,38.464291 0 1 1 77.88746,0 z"
       transform="matrix(2.9309212,0,0,2.0347126,-853.64247,-470.81329)" />
    <rect
       style="fill:none;stroke:#000000;stroke-width:0.80000001;stroke-miterlimit:4;stroke-opacity:1;stroke-dasharray:none"
       id="rect5979"
       width="214.25014"
       height="216.51729"
       x="125.55858"
       y="198.77911" />
    <path
       style="fill:none;stroke:#000000;stroke-width:0.80000001;stroke-linecap:butt;stroke-linejoin:miter;stroke-miterlimit:4;stroke-opacity:1;stroke-dasharray:none"
       d="m 257.00377,415.00445 0,42 -25.6,0"
       id="path5981"
       inkscape:connector-curvature="0" />
    <text
       xml:space="preserve"
       style="font-size:20px;font-style:normal;font-weight:normal;line-height:125%;letter-spacing:0px;word-spacing:0px;fill:#000000;fill-opacity:1;stroke:none;font-family:Sans;-inkscape-font-specification:Sans;font-stretch:normal;font-variant:normal"
       x="122.27028"
       y="462.36218"
       id="text6005"
       sodipodi:linespacing="125%"><tspan
         sodipodi:role="line"
         id="tspan6007"
         x="122.27028"
         y="462.36218">Tastenfeld</tspan></text>
    <rect
       style="fill:none;stroke:#000000;stroke-width:0.80000001;stroke-miterlimit:4;stroke-opacity:1;stroke-dasharray:none"
       id="rect6009"
       width="255.15338"
       height="170.71428"
       x="353.8609"
       y="253.43301" />
    <path
       style="fill:none;stroke:#000000;stroke-width:0.80000001;stroke-linecap:butt;stroke-linejoin:miter;stroke-miterlimit:4;stroke-opacity:1;stroke-dasharray:none"
       d="m 375.64663,424.14731 0,32.85714 27.5,0"
       id="path6011"
       inkscape:connector-curvature="0" />
    <path
       sodipodi:type="arc"
       style="fill:none;stroke:#000000;stroke-width:5.06858301;stroke-miterlimit:4;stroke-opacity:1;stroke-dasharray:none"
       id="path5477-38-7-25"
       sodipodi:cx="455"
       sodipodi:cy="397.71933"
       sodipodi:rx="45.404453"
       sodipodi:ry="48.214287"
       d="m 484.18542,360.78504 a 45.404453,48.214287 0 0 1 0,73.86858"
       transform="matrix(1.226808,0,0,1.2393967,-99.580195,-154.11279)"
       sodipodi:start="5.4105207"
       sodipodi:end="7.1558499"
       sodipodi:open="true" />
    <path
       style="fill:none;stroke:#000000;stroke-width:0.80000001;stroke-linecap:butt;stroke-linejoin:miter;stroke-miterlimit:4;stroke-opacity:1;stroke-dasharray:none"
       d="m 397.30959,453.75977 5.69418,3.24468 -5.98943,3.41293"
       id="path6033"
       inkscape:connector-curvature="0" />
    <rect
       style="fill:none;stroke:#000000;stroke-width:0.80000001;stroke-miterlimit:4;stroke-opacity:1;stroke-dasharray:none"
       id="rect6035"
       width="175.45512"
       height="93.260391"
       x="395.65625"
       y="148.67937" />
    <path
       style="fill:none;stroke:#000000;stroke-width:0.80000001;stroke-linecap:butt;stroke-linejoin:miter;stroke-miterlimit:4;stroke-opacity:1;stroke-dasharray:none"
       d="m 461.00377,149.02731 0,-52.022857 28.53681,0"
       id="path6041"
       inkscape:connector-curvature="0" />
    <path
       style="fill:none;stroke:#000000;stroke-width:0.80000001;stroke-linecap:butt;stroke-linejoin:miter;stroke-miterlimit:4;stroke-opacity:1;stroke-dasharray:none"
       d="m 484.30959,93.604303 5.69418,3.40015 -5.98943,3.576457"
       id="path6033-9"
       inkscape:connector-curvature="0" />
    <rect
       style="fill:none;stroke:#000000;stroke-width:0.80000001;stroke-miterlimit:4;stroke-opacity:1;stroke-dasharray:none"
       id="rect6061"
       width="41.377087"
       height="30.310163"
       x="275.76901"
       y="150.85901" />
    <path
       style="fill:none;stroke:#000000;stroke-width:0.80000001;stroke-linecap:butt;stroke-linejoin:miter;stroke-miterlimit:4;stroke-opacity:1;stroke-dasharray:none"
       d="m 290.28949,151.07588 0,-54.071427 20.35714,0"
       id="path6063"
       inkscape:connector-curvature="0" />
    <path
       style="fill:none;stroke:#000000;stroke-width:0.80000001;stroke-linecap:butt;stroke-linejoin:miter;stroke-miterlimit:4;stroke-opacity:1;stroke-dasharray:none"
       d="m 305.30959,93.604303 5.69418,3.40015 -5.98943,3.576457"
       id="path6033-3"
       inkscape:connector-curvature="0" />
    <rect
       style="fill:none;stroke:#000000;stroke-width:0.80000001;stroke-miterlimit:4;stroke-opacity:1;stroke-dasharray:none"
       id="rect6072"
       width="106.87727"
       height="70.205605"
       x="141.36165"
       y="123.42555" />
    <text
       xml:space="preserve"
       style="font-size:20px;font-style:normal;font-weight:normal;line-height:125%;letter-spacing:0px;word-spacing:0px;fill:#000000;fill-opacity:1;stroke:none;font-family:Sans;-inkscape-font-specification:Sans;font-stretch:normal;font-variant:normal"
       x="497.33893"
       y="100.14069"
       id="text6094"
       sodipodi:linespacing="125%"><tspan
         sodipodi:role="line"
         id="tspan6096"
         x="497.33893"
         y="100.14069">Lautsprecher</tspan></text>
    <text
       xml:space="preserve"
       style="font-size:20px;font-style:normal;font-variant:normal;font-weight:normal;font-stretch:normal;line-height:125%;letter-spacing:0px;word-spacing:0px;fill:#000000;fill-opacity:1;stroke:none;font-family:Sans;-inkscape-font-specification:Sans"
       x="409.63837"
       y="462.36218"
       id="text6098"
       sodipodi:linespacing="125%"><tspan
         sodipodi:role="line"
         x="409.63837"
         y="462.36218"
         id="tspan3098">RFID-Reader </tspan></text>
    <flowRoot
       xml:space="preserve"
       id="flowRoot6102"
       style="fill:black;stroke:none;stroke-opacity:1;stroke-width:1px;stroke-linejoin:miter;stroke-linecap:butt;fill-opacity:1;font-family:Sans;font-style:normal;font-weight:normal;font-size:20px;line-height:125%;letter-spacing:0px;word-spacing:0px"><flowRegion
         id="flowRegion6104"><rect
           id="rect6106"
           width="24.243662"
           height="146.47212"
           x="-330.31989"
           y="415.96606" /></flowRegion><flowPara
         id="flowPara6108" /></flowRoot>    <text
       xml:space="preserve"
       style="font-size:20px;font-style:normal;font-weight:normal;line-height:125%;letter-spacing:0px;word-spacing:0px;fill:#000000;fill-opacity:1;stroke:none;font-family:Sans;-inkscape-font-specification:Sans;font-stretch:normal;font-variant:normal"
       x="314.21802"
       y="100.14069"
       id="text6129"
       sodipodi:linespacing="125%"><tspan
         sodipodi:role="line"
         id="tspan6131"
         x="314.21802"
         y="100.14069">Status-LEDs</tspan></text>
    <text
       xml:space="preserve"
       style="font-size:20px;font-style:normal;font-weight:normal;line-height:125%;letter-spacing:0px;word-spacing:0px;fill:#000000;fill-opacity:1;stroke:none;font-family:Sans;-inkscape-font-specification:Sans;font-stretch:normal;font-variant:normal"
       x="103.83824"
       y="100.14069"
       id="text6133"
       sodipodi:linespacing="125%"><tspan
         sodipodi:role="line"
         id="tspan6135"
         x="103.83824"
         y="100.14069">Aktivierung</tspan></text>
    <path
       style="fill:none;stroke:#000000;stroke-width:0.80000001;stroke-linecap:butt;stroke-linejoin:miter;stroke-miterlimit:4;stroke-opacity:1;stroke-dasharray:none"
       d="m 234.04316,123.42555 0,-26.421097 -11.11168,0"
       id="path6139"
       inkscape:connector-curvature="0" />
    <path
       style="fill:none;stroke:#000000;stroke-width:0.80000001;stroke-linecap:butt;stroke-linejoin:miter;stroke-miterlimit:4;stroke-opacity:1;stroke-dasharray:none"
       d="m 228.69795,93.604303 -5.69418,3.40015 5.98943,3.576457"
       id="path6033-3-5"
       inkscape:connector-curvature="0" />
    <path
       style="fill:none;stroke:#000000;stroke-width:0.80000001;stroke-linecap:butt;stroke-linejoin:miter;stroke-miterlimit:4;stroke-opacity:1;stroke-dasharray:none"
       d="m 236.69795,453.75977 -5.69418,3.24468 5.98943,3.41293"
       id="path6033-7"
       inkscape:connector-curvature="0" />
  </g>
</svg>
