solid Hülle_Bernard
   facet normal 1.000000e+00 3.748963e-33 6.123234e-17
      outer loop
         vertex 9.000000e+01 1.100000e+01 1.600000e+02
         vertex 9.000000e+01 1.100000e+01 2.500000e+00
         vertex 9.000000e+01 1.100000e+01 3.393262e-14
      endloop
   endfacet
   facet normal 1.000000e+00 3.748963e-33 6.123234e-17
      outer loop
         vertex 9.000000e+01 1.100000e+01 1.600000e+02
         vertex 9.000000e+01 1.100000e+01 3.393262e-14
         vertex 9.000000e+01 1.400000e+01 3.907291e-14
      endloop
   endfacet
   facet normal 1.000000e+00 3.748963e-33 6.123234e-17
      outer loop
         vertex 9.000000e+01 1.100000e+01 1.600000e+02
         vertex 9.000000e+01 1.400000e+01 3.907291e-14
         vertex 9.000000e+01 1.400000e+01 1.600000e+02
      endloop
   endfacet
   facet normal -1.000000e+00 -3.748963e-33 -6.123234e-17
      outer loop
         vertex -9.000000e+01 1.400000e+01 1.600000e+02
         vertex -9.000000e+01 1.400000e+01 1.204275e-14
         vertex -9.000000e+01 1.100000e+01 1.666188e-14
      endloop
   endfacet
   facet normal -1.000000e+00 -3.748963e-33 -6.123234e-17
      outer loop
         vertex -9.000000e+01 1.400000e+01 1.600000e+02
         vertex -9.000000e+01 1.100000e+01 1.666188e-14
         vertex -9.000000e+01 1.100000e+01 1.600000e+02
      endloop
   endfacet
   facet normal -6.123234e-17 3.673940e-16 1.000000e+00
      outer loop
         vertex 9.000000e+01 1.400000e+01 1.600000e+02
         vertex -9.000000e+01 1.400000e+01 1.600000e+02
         vertex -9.000000e+01 1.100000e+01 1.600000e+02
      endloop
   endfacet
   facet normal -6.123234e-17 3.673940e-16 1.000000e+00
      outer loop
         vertex 9.000000e+01 1.400000e+01 1.600000e+02
         vertex -9.000000e+01 1.100000e+01 1.600000e+02
         vertex -8.750000e+01 1.100000e+01 1.600000e+02
      endloop
   endfacet
   facet normal -6.123234e-17 3.673940e-16 1.000000e+00
      outer loop
         vertex 9.000000e+01 1.400000e+01 1.600000e+02
         vertex -8.750000e+01 1.100000e+01 1.600000e+02
         vertex 8.750000e+01 1.100000e+01 1.600000e+02
      endloop
   endfacet
   facet normal -6.123234e-17 3.673940e-16 1.000000e+00
      outer loop
         vertex 9.000000e+01 1.400000e+01 1.600000e+02
         vertex 8.750000e+01 1.100000e+01 1.600000e+02
         vertex 9.000000e+01 1.100000e+01 1.600000e+02
      endloop
   endfacet
   facet normal 6.123234e-17 -2.449294e-16 -1.000000e+00
      outer loop
         vertex 9.000000e+01 1.100000e+01 3.870552e-14
         vertex -9.000000e+01 1.100000e+01 1.666188e-14
         vertex -8.750000e+01 1.100000e+01 1.696804e-14
      endloop
   endfacet
   facet normal 6.123234e-17 -2.449294e-16 -1.000000e+00
      outer loop
         vertex 9.000000e+01 1.100000e+01 3.870552e-14
         vertex -9.000000e+01 1.100000e+01 1.666188e-14
         vertex -9.000000e+01 1.400000e+01 1.702927e-14
      endloop
   endfacet
   facet normal 6.123234e-17 -2.449294e-16 -1.000000e+00
      outer loop
         vertex 9.000000e+01 1.100000e+01 3.870552e-14
         vertex -9.000000e+01 1.400000e+01 1.702927e-14
         vertex 9.000000e+01 1.400000e+01 3.907291e-14
      endloop
   endfacet
   facet normal 1.499803e-32 1.000000e+00 -3.061617e-16
      outer loop
         vertex 9.000000e+01 1.400000e+01 1.600000e+02
         vertex 8.750000e+01 1.400000e+01 1.575000e+02
         vertex -9.000000e+01 1.400000e+01 1.600000e+02
      endloop
   endfacet
   facet normal 1.499803e-32 1.000000e+00 -3.061617e-16
      outer loop
         vertex 8.750000e+01 1.400000e+01 1.575000e+02
         vertex -8.750000e+01 1.400000e+01 1.575000e+02
         vertex -9.000000e+01 1.400000e+01 1.600000e+02
      endloop
   endfacet
   facet normal 1.499803e-32 1.000000e+00 -3.061617e-16
      outer loop
         vertex -9.000000e+01 1.400000e+01 1.600000e+02
         vertex -8.750000e+01 1.400000e+01 1.575000e+02
         vertex -9.000000e+01 1.400000e+01 1.702927e-14
      endloop
   endfacet
   facet normal 1.499803e-32 1.000000e+00 -3.061617e-16
      outer loop
         vertex -8.750000e+01 1.400000e+01 1.575000e+02
         vertex -8.750000e+01 1.400000e+01 2.500000e+00
         vertex -9.000000e+01 1.400000e+01 1.702927e-14
      endloop
   endfacet
   facet normal 1.499803e-32 1.000000e+00 -3.061617e-16
      outer loop
         vertex -9.000000e+01 1.400000e+01 1.702927e-14
         vertex -8.750000e+01 1.400000e+01 2.500000e+00
         vertex 9.000000e+01 1.400000e+01 2.306171e-14
      endloop
   endfacet
   facet normal 1.499803e-32 1.000000e+00 -3.061617e-16
      outer loop
         vertex -8.750000e+01 1.400000e+01 2.500000e+00
         vertex 8.750000e+01 1.400000e+01 2.500000e+00
         vertex 9.000000e+01 1.400000e+01 2.306171e-14
      endloop
   endfacet
   facet normal 1.499803e-32 1.000000e+00 -3.061617e-16
      outer loop
         vertex 9.000000e+01 1.400000e+01 2.306171e-14
         vertex 8.750000e+01 1.400000e+01 2.500000e+00
         vertex 8.750000e+01 1.400000e+01 1.575000e+02
      endloop
   endfacet
   facet normal 1.499803e-32 1.000000e+00 -3.061617e-16
      outer loop
         vertex 8.750000e+01 1.400000e+01 1.575000e+02
         vertex 9.000000e+01 1.400000e+01 1.600000e+02
         vertex 9.000000e+01 1.400000e+01 2.306171e-14
      endloop
   endfacet
   facet normal -1.000000e+00 -3.748963e-33 -6.123234e-17
      outer loop
         vertex 8.750000e+01 1.400000e+01 1.575000e+02
         vertex 8.750000e+01 1.100000e+01 2.500000e+00
         vertex 8.750000e+01 1.100000e+01 1.575000e+02
      endloop
   endfacet
   facet normal -1.000000e+00 -3.748963e-33 -6.123234e-17
      outer loop
         vertex 8.750000e+01 1.400000e+01 1.575000e+02
         vertex 8.750000e+01 1.400000e+01 2.500000e+00
         vertex 8.750000e+01 1.100000e+01 2.500000e+00
      endloop
   endfacet
   facet normal 1.000000e+00 3.748963e-33 6.123234e-17
      outer loop
         vertex -8.750000e+01 1.100000e+01 1.575000e+02
         vertex -8.750000e+01 1.400000e+01 2.500000e+00
         vertex -8.750000e+01 1.400000e+01 1.575000e+02
      endloop
   endfacet
   facet normal 1.000000e+00 3.748963e-33 6.123234e-17
      outer loop
         vertex -8.750000e+01 1.100000e+01 1.575000e+02
         vertex -8.750000e+01 1.100000e+01 2.500000e+00
         vertex -8.750000e+01 1.400000e+01 2.500000e+00
      endloop
   endfacet
   facet normal 6.123234e-17 -3.673940e-16 -1.000000e+00
      outer loop
         vertex 8.750000e+01 1.100000e+01 1.575000e+02
         vertex -8.750000e+01 1.400000e+01 1.575000e+02
         vertex 8.750000e+01 1.400000e+01 1.575000e+02
      endloop
   endfacet
   facet normal 6.123234e-17 -3.673940e-16 -1.000000e+00
      outer loop
         vertex 8.750000e+01 1.100000e+01 1.575000e+02
         vertex -8.750000e+01 1.100000e+01 1.575000e+02
         vertex -8.750000e+01 1.400000e+01 1.575000e+02
      endloop
   endfacet
   facet normal -6.123234e-17 2.449294e-16 1.000000e+00
      outer loop
         vertex 8.750000e+01 1.400000e+01 2.500000e+00
         vertex -8.750000e+01 1.100000e+01 2.500000e+00
         vertex 8.750000e+01 1.100000e+01 2.500000e+00
      endloop
   endfacet
   facet normal -6.123234e-17 2.449294e-16 1.000000e+00
      outer loop
         vertex 8.750000e+01 1.400000e+01 2.500000e+00
         vertex -8.750000e+01 1.400000e+01 2.500000e+00
         vertex -8.750000e+01 1.100000e+01 2.500000e+00
      endloop
   endfacet
   facet normal 0.000000e+00 0.000000e+00 1.000000e+00
      outer loop
         vertex -9.000000e+01 -1.400000e+01 1.600000e+02
         vertex 9.000000e+01 -1.400000e+01 1.600000e+02
         vertex 9.000000e+01 1.100000e+01 1.600000e+02
      endloop
   endfacet
   facet normal 0.000000e+00 0.000000e+00 1.000000e+00
      outer loop
         vertex -9.000000e+01 -1.400000e+01 1.600000e+02
         vertex 9.000000e+01 1.100000e+01 1.600000e+02
         vertex 8.750000e+01 1.100000e+01 1.600000e+02
      endloop
   endfacet
   facet normal 0.000000e+00 0.000000e+00 1.000000e+00
      outer loop
         vertex -9.000000e+01 -1.400000e+01 1.600000e+02
         vertex 8.750000e+01 1.100000e+01 1.600000e+02
         vertex -8.750000e+01 1.100000e+01 1.600000e+02
      endloop
   endfacet
   facet normal 0.000000e+00 0.000000e+00 1.000000e+00
      outer loop
         vertex -9.000000e+01 -1.400000e+01 1.600000e+02
         vertex -8.750000e+01 1.100000e+01 1.600000e+02
         vertex -9.000000e+01 1.100000e+01 1.600000e+02
      endloop
   endfacet
   facet normal 0.000000e+00 0.000000e+00 -1.000000e+00
      outer loop
         vertex -9.000000e+01 1.100000e+01 5.690356e-15
         vertex 9.000000e+01 1.100000e+01 3.870552e-14
         vertex -8.750000e+01 1.100000e+01 1.696804e-14
      endloop
   endfacet
   facet normal 0.000000e+00 0.000000e+00 -1.000000e+00
      outer loop
         vertex -9.000000e+01 1.100000e+01 5.690356e-15
         vertex 9.000000e+01 1.100000e+01 3.870552e-14
         vertex 9.000000e+01 -1.400000e+01 -2.427184e-15
      endloop
   endfacet
   facet normal 0.000000e+00 0.000000e+00 -1.000000e+00
      outer loop
         vertex -9.000000e+01 1.100000e+01 5.690356e-15
         vertex 9.000000e+01 -1.400000e+01 -2.427184e-15
         vertex -9.000000e+01 -1.400000e+01 6.362448e-15
      endloop
   endfacet
   facet normal -1.000000e+00 1.224647e-16 0.000000e+00
      outer loop
         vertex -9.000000e+01 1.100000e+01 1.600000e+02
         vertex -9.000000e+01 1.100000e+01 1.457862e-14
         vertex -9.000000e+01 -1.400000e+01 7.225416e-15
      endloop
   endfacet
   facet normal -1.000000e+00 1.224647e-16 0.000000e+00
      outer loop
         vertex -9.000000e+01 1.100000e+01 1.600000e+02
         vertex -9.000000e+01 -1.400000e+01 7.225416e-15
         vertex -9.000000e+01 -1.400000e+01 1.600000e+02
      endloop
   endfacet
   facet normal -1.836970e-16 -1.000000e+00 0.000000e+00
      outer loop
         vertex -9.000000e+01 -1.400000e+01 1.600000e+02
         vertex -9.000000e+01 -1.400000e+01 7.225416e-15
         vertex 9.000000e+01 -1.400000e+01 -1.103172e-14
      endloop
   endfacet
   facet normal -1.836970e-16 -1.000000e+00 0.000000e+00
      outer loop
         vertex -9.000000e+01 -1.400000e+01 1.600000e+02
         vertex 9.000000e+01 -1.400000e+01 -1.103172e-14
         vertex 9.000000e+01 -1.400000e+01 1.600000e+02
      endloop
   endfacet
   facet normal 1.000000e+00 0.000000e+00 0.000000e+00
      outer loop
         vertex 9.000000e+01 -1.400000e+01 1.600000e+02
         vertex 9.000000e+01 -1.400000e+01 -1.103172e-14
         vertex 9.000000e+01 1.100000e+01 4.664366e-15
      endloop
   endfacet
   facet normal 1.000000e+00 0.000000e+00 0.000000e+00
      outer loop
         vertex 9.000000e+01 -1.400000e+01 1.600000e+02
         vertex 9.000000e+01 1.100000e+01 4.664366e-15
         vertex 9.000000e+01 1.100000e+01 2.500000e+00
      endloop
   endfacet
   facet normal 1.000000e+00 0.000000e+00 0.000000e+00
      outer loop
         vertex 9.000000e+01 -1.400000e+01 1.600000e+02
         vertex 9.000000e+01 1.100000e+01 2.500000e+00
         vertex 9.000000e+01 1.100000e+01 1.600000e+02
      endloop
   endfacet
   facet normal -0.000000e+00 -0.000000e+00 -1.000000e+00
      outer loop
         vertex -8.500000e+01 1.100000e+01 1.550000e+02
         vertex 2.000000e+00 4.000000e+00 1.550000e+02
         vertex -8.500000e+01 4.000000e+00 1.550000e+02
      endloop
   endfacet
   facet normal -0.000000e+00 -0.000000e+00 -1.000000e+00
      outer loop
         vertex -8.500000e+01 1.100000e+01 1.550000e+02
         vertex 1.800000e+01 4.000000e+00 1.550000e+02
         vertex 2.000000e+00 4.000000e+00 1.550000e+02
      endloop
   endfacet
   facet normal -0.000000e+00 -0.000000e+00 -1.000000e+00
      outer loop
         vertex -8.500000e+01 1.100000e+01 1.550000e+02
         vertex 8.500000e+01 4.000000e+00 1.550000e+02
         vertex 1.800000e+01 4.000000e+00 1.550000e+02
      endloop
   endfacet
   facet normal -0.000000e+00 -0.000000e+00 -1.000000e+00
      outer loop
         vertex -8.500000e+01 1.100000e+01 1.550000e+02
         vertex 8.500000e+01 1.100000e+01 1.550000e+02
         vertex 8.500000e+01 4.000000e+00 1.550000e+02
      endloop
   endfacet
   facet normal -0.000000e+00 -0.000000e+00 1.000000e+00
      outer loop
         vertex -8.500000e+01 4.000000e+00 5.000000e+00
         vertex 8.500000e+01 1.100000e+01 5.000000e+00
         vertex -8.500000e+01 1.100000e+01 5.000000e+00
      endloop
   endfacet
   facet normal -0.000000e+00 -0.000000e+00 1.000000e+00
      outer loop
         vertex -8.500000e+01 4.000000e+00 5.000000e+00
         vertex 8.500000e+01 4.000000e+00 5.000000e+00
         vertex 8.500000e+01 1.100000e+01 5.000000e+00
      endloop
   endfacet
   facet normal -0.000000e+00 -0.000000e+00 1.000000e+00
      outer loop
         vertex -8.500000e+01 4.000000e+00 5.000000e+00
         vertex 8.500000e+01 4.000000e+00 5.000000e+00
         vertex 1.800000e+01 4.000000e+00 5.000000e+00
      endloop
   endfacet
   facet normal -0.000000e+00 -0.000000e+00 1.000000e+00
      outer loop
         vertex -8.500000e+01 4.000000e+00 5.000000e+00
         vertex 1.800000e+01 4.000000e+00 5.000000e+00
         vertex 2.000000e+00 4.000000e+00 5.000000e+00
      endloop
   endfacet
   facet normal 1.000000e+00 -1.224647e-16 -0.000000e+00
      outer loop
         vertex -8.500000e+01 1.100000e+01 5.000000e+00
         vertex -8.500000e+01 4.000000e+00 3.500000e+01
         vertex -8.500000e+01 4.000000e+00 5.000000e+00
      endloop
   endfacet
   facet normal 1.000000e+00 -1.224647e-16 -0.000000e+00
      outer loop
         vertex -8.500000e+01 1.100000e+01 5.000000e+00
         vertex -8.500000e+01 4.000000e+00 7.100000e+01
         vertex -8.500000e+01 4.000000e+00 3.500000e+01
      endloop
   endfacet
   facet normal 1.000000e+00 -1.224647e-16 -0.000000e+00
      outer loop
         vertex -8.500000e+01 1.100000e+01 5.000000e+00
         vertex -8.500000e+01 4.000000e+00 8.500000e+01
         vertex -8.500000e+01 4.000000e+00 7.100000e+01
      endloop
   endfacet
   facet normal 1.000000e+00 -1.224647e-16 -0.000000e+00
      outer loop
         vertex -8.500000e+01 1.100000e+01 5.000000e+00
         vertex -8.500000e+01 1.100000e+01 8.500000e+01
         vertex -8.500000e+01 4.000000e+00 8.500000e+01
      endloop
   endfacet
   facet normal 1.836970e-16 1.000000e+00 -0.000000e+00
      outer loop
         vertex 2.000000e+00 4.000000e+00 3.500000e+01
         vertex -8.500000e+01 4.000000e+00 7.100000e+01
         vertex 2.000000e+00 4.000000e+00 7.100000e+01
      endloop
   endfacet
   facet normal 1.836970e-16 1.000000e+00 -0.000000e+00
      outer loop
         vertex 2.000000e+00 4.000000e+00 3.500000e+01
         vertex -8.500000e+01 4.000000e+00 3.500000e+01
         vertex -8.500000e+01 4.000000e+00 7.100000e+01
      endloop
   endfacet
   facet normal -1.000000e+00 -0.000000e+00 -0.000000e+00
      outer loop
         vertex 8.500000e+01 1.100000e+01 1.550000e+02
         vertex 8.500000e+01 4.000000e+00 5.000000e+00
         vertex 8.500000e+01 4.000000e+00 1.550000e+02
      endloop
   endfacet
   facet normal -1.000000e+00 -0.000000e+00 -0.000000e+00
      outer loop
         vertex 8.500000e+01 1.100000e+01 1.550000e+02
         vertex 8.500000e+01 1.100000e+01 5.000000e+00
         vertex 8.500000e+01 4.000000e+00 5.000000e+00
      endloop
   endfacet
   facet normal -0.000000e+00 -0.000000e+00 -1.000000e+00
      outer loop
         vertex 1.800000e+01 4.000000e+00 1.550000e+02
         vertex 1.800000e+01 -7.000000e+00 1.550000e+02
         vertex 1.800000e+01 -1.200000e+01 1.550000e+02
      endloop
   endfacet
   facet normal -0.000000e+00 -0.000000e+00 -1.000000e+00
      outer loop
         vertex 1.800000e+01 4.000000e+00 1.550000e+02
         vertex 8.500000e+01 -1.200000e+01 1.550000e+02
         vertex 1.800000e+01 -1.200000e+01 1.550000e+02
      endloop
   endfacet
   facet normal -0.000000e+00 -0.000000e+00 -1.000000e+00
      outer loop
         vertex 1.800000e+01 4.000000e+00 1.550000e+02
         vertex 8.500000e+01 4.000000e+00 1.550000e+02
         vertex 8.500000e+01 -1.200000e+01 1.550000e+02
      endloop
   endfacet
   facet normal -0.000000e+00 -0.000000e+00 1.000000e+00
      outer loop
         vertex 1.800000e+01 -7.000000e+00 5.000000e+00
         vertex 8.500000e+01 4.000000e+00 5.000000e+00
         vertex 1.800000e+01 4.000000e+00 5.000000e+00
      endloop
   endfacet
   facet normal -0.000000e+00 -0.000000e+00 1.000000e+00
      outer loop
         vertex 1.800000e+01 -7.000000e+00 5.000000e+00
         vertex 8.500000e+01 -1.200000e+01 5.000000e+00
         vertex 8.500000e+01 4.000000e+00 5.000000e+00
      endloop
   endfacet
   facet normal -0.000000e+00 -0.000000e+00 1.000000e+00
      outer loop
         vertex 1.800000e+01 -7.000000e+00 5.000000e+00
         vertex 1.800000e+01 -1.200000e+01 5.000000e+00
         vertex 8.500000e+01 -1.200000e+01 5.000000e+00
      endloop
   endfacet
   facet normal 1.000000e+00 -1.224647e-16 -0.000000e+00
      outer loop
         vertex 1.800000e+01 -1.200000e+01 7.100000e+01
         vertex 1.800000e+01 -7.000000e+00 1.550000e+02
         vertex 1.800000e+01 -1.200000e+01 1.550000e+02
      endloop
   endfacet
   facet normal 1.000000e+00 -1.224647e-16 -0.000000e+00
      outer loop
         vertex 1.800000e+01 -1.200000e+01 7.100000e+01
         vertex 1.800000e+01 -7.000000e+00 7.100000e+01
         vertex 1.800000e+01 -7.000000e+00 1.550000e+02
      endloop
   endfacet
   facet normal 1.836970e-16 1.000000e+00 -0.000000e+00
      outer loop
         vertex 8.500000e+01 -1.200000e+01 1.550000e+02
         vertex 1.800000e+01 -1.200000e+01 7.100000e+01
         vertex 1.800000e+01 -1.200000e+01 1.550000e+02
      endloop
   endfacet
   facet normal 1.836970e-16 1.000000e+00 -0.000000e+00
      outer loop
         vertex 8.500000e+01 -1.200000e+01 1.550000e+02
         vertex 1.800000e+01 -1.200000e+01 3.500000e+01
         vertex 1.800000e+01 -1.200000e+01 7.100000e+01
      endloop
   endfacet
   facet normal 1.836970e-16 1.000000e+00 -0.000000e+00
      outer loop
         vertex 8.500000e+01 -1.200000e+01 1.550000e+02
         vertex 1.800000e+01 -1.200000e+01 5.000000e+00
         vertex 1.800000e+01 -1.200000e+01 3.500000e+01
      endloop
   endfacet
   facet normal 1.836970e-16 1.000000e+00 -0.000000e+00
      outer loop
         vertex 8.500000e+01 -1.200000e+01 1.550000e+02
         vertex 8.500000e+01 -1.200000e+01 5.000000e+00
         vertex 1.800000e+01 -1.200000e+01 5.000000e+00
      endloop
   endfacet
   facet normal -1.000000e+00 -0.000000e+00 -0.000000e+00
      outer loop
         vertex 8.500000e+01 4.000000e+00 1.550000e+02
         vertex 8.500000e+01 -1.200000e+01 5.000000e+00
         vertex 8.500000e+01 -1.200000e+01 1.550000e+02
      endloop
   endfacet
   facet normal -1.000000e+00 -0.000000e+00 -0.000000e+00
      outer loop
         vertex 8.500000e+01 4.000000e+00 1.550000e+02
         vertex 8.500000e+01 4.000000e+00 5.000000e+00
         vertex 8.500000e+01 -1.200000e+01 5.000000e+00
      endloop
   endfacet
   facet normal -0.000000e+00 -0.000000e+00 -1.000000e+00
      outer loop
         vertex 2.000000e+00 4.000000e+00 1.550000e+02
         vertex 1.800000e+01 -7.000000e+00 1.550000e+02
         vertex 2.000000e+00 -7.000000e+00 1.550000e+02
      endloop
   endfacet
   facet normal -0.000000e+00 -0.000000e+00 -1.000000e+00
      outer loop
         vertex 2.000000e+00 4.000000e+00 1.550000e+02
         vertex 1.800000e+01 4.000000e+00 1.550000e+02
         vertex 1.800000e+01 -7.000000e+00 1.550000e+02
      endloop
   endfacet
   facet normal -0.000000e+00 -0.000000e+00 1.000000e+00
      outer loop
         vertex 2.000000e+00 -7.000000e+00 5.000000e+00
         vertex 1.800000e+01 4.000000e+00 5.000000e+00
         vertex 2.000000e+00 4.000000e+00 5.000000e+00
      endloop
   endfacet
   facet normal -0.000000e+00 -0.000000e+00 1.000000e+00
      outer loop
         vertex 2.000000e+00 -7.000000e+00 5.000000e+00
         vertex 1.800000e+01 -7.000000e+00 5.000000e+00
         vertex 1.800000e+01 4.000000e+00 5.000000e+00
      endloop
   endfacet
   facet normal -0.000000e+00 -0.000000e+00 1.000000e+00
      outer loop
         vertex 2.000000e+00 -7.000000e+00 5.000000e+00
         vertex 1.800000e+01 -7.000000e+00 5.000000e+00
         vertex 1.500000e+01 -7.000000e+00 5.000000e+00
      endloop
   endfacet
   facet normal 1.000000e+00 -1.224647e-16 -0.000000e+00
      outer loop
         vertex 2.000000e+00 4.000000e+00 7.100000e+01
         vertex 2.000000e+00 -7.000000e+00 3.500000e+01
         vertex 2.000000e+00 4.000000e+00 3.500000e+01
      endloop
   endfacet
   facet normal 1.000000e+00 -1.224647e-16 -0.000000e+00
      outer loop
         vertex 2.000000e+00 4.000000e+00 7.100000e+01
         vertex 2.000000e+00 -7.000000e+00 7.100000e+01
         vertex 2.000000e+00 -7.000000e+00 3.500000e+01
      endloop
   endfacet
   facet normal 1.836970e-16 1.000000e+00 -0.000000e+00
      outer loop
         vertex 1.800000e+01 -7.000000e+00 1.550000e+02
         vertex 2.000000e+00 -7.000000e+00 8.500000e+01
         vertex 2.000000e+00 -7.000000e+00 1.550000e+02
      endloop
   endfacet
   facet normal 1.836970e-16 1.000000e+00 -0.000000e+00
      outer loop
         vertex 1.800000e+01 -7.000000e+00 1.550000e+02
         vertex 2.000000e+00 -7.000000e+00 7.100000e+01
         vertex 2.000000e+00 -7.000000e+00 8.500000e+01
      endloop
   endfacet
   facet normal 1.836970e-16 1.000000e+00 -0.000000e+00
      outer loop
         vertex 1.800000e+01 -7.000000e+00 1.550000e+02
         vertex 1.800000e+01 -7.000000e+00 7.100000e+01
         vertex 2.000000e+00 -7.000000e+00 7.100000e+01
      endloop
   endfacet
   facet normal -0.000000e+00 -0.000000e+00 -1.000000e+00
      outer loop
         vertex -8.500000e+01 -7.000000e+00 1.550000e+02
         vertex 2.000000e+00 4.000000e+00 1.550000e+02
         vertex 2.000000e+00 -7.000000e+00 1.550000e+02
      endloop
   endfacet
   facet normal -0.000000e+00 -0.000000e+00 -1.000000e+00
      outer loop
         vertex -8.500000e+01 -7.000000e+00 1.550000e+02
         vertex -8.500000e+01 4.000000e+00 1.550000e+02
         vertex 2.000000e+00 4.000000e+00 1.550000e+02
      endloop
   endfacet
   facet normal 1.836970e-16 1.000000e+00 -0.000000e+00
      outer loop
         vertex 2.000000e+00 -7.000000e+00 1.550000e+02
         vertex -8.500000e+01 -7.000000e+00 8.500000e+01
         vertex -8.500000e+01 -7.000000e+00 1.550000e+02
      endloop
   endfacet
   facet normal 1.836970e-16 1.000000e+00 -0.000000e+00
      outer loop
         vertex 2.000000e+00 -7.000000e+00 1.550000e+02
         vertex 2.000000e+00 -7.000000e+00 8.500000e+01
         vertex -8.500000e+01 -7.000000e+00 8.500000e+01
      endloop
   endfacet
   facet normal -0.000000e+00 -0.000000e+00 1.000000e+00
      outer loop
         vertex -8.500000e+01 -7.000000e+00 7.100000e+01
         vertex 2.000000e+00 4.000000e+00 7.100000e+01
         vertex -8.500000e+01 4.000000e+00 7.100000e+01
      endloop
   endfacet
   facet normal -0.000000e+00 -0.000000e+00 1.000000e+00
      outer loop
         vertex -8.500000e+01 -7.000000e+00 7.100000e+01
         vertex 2.000000e+00 -7.000000e+00 7.100000e+01
         vertex 2.000000e+00 4.000000e+00 7.100000e+01
      endloop
   endfacet
   facet normal 1.000000e+00 -1.224647e-16 -0.000000e+00
      outer loop
         vertex -8.500000e+01 -7.000000e+00 7.100000e+01
         vertex -8.500000e+01 4.000000e+00 8.500000e+01
         vertex -8.500000e+01 -7.000000e+00 8.500000e+01
      endloop
   endfacet
   facet normal 1.000000e+00 -1.224647e-16 -0.000000e+00
      outer loop
         vertex -8.500000e+01 -7.000000e+00 7.100000e+01
         vertex -8.500000e+01 4.000000e+00 7.100000e+01
         vertex -8.500000e+01 4.000000e+00 8.500000e+01
      endloop
   endfacet
   facet normal 1.836970e-16 1.000000e+00 -0.000000e+00
      outer loop
         vertex -8.500000e+01 -7.000000e+00 7.100000e+01
         vertex 2.000000e+00 -7.000000e+00 8.500000e+01
         vertex 2.000000e+00 -7.000000e+00 7.100000e+01
      endloop
   endfacet
   facet normal 1.836970e-16 1.000000e+00 -0.000000e+00
      outer loop
         vertex -8.500000e+01 -7.000000e+00 7.100000e+01
         vertex -8.500000e+01 -7.000000e+00 8.500000e+01
         vertex 2.000000e+00 -7.000000e+00 8.500000e+01
      endloop
   endfacet
   facet normal 1.000000e+00 0.000000e+00 0.000000e+00
      outer loop
         vertex -8.500000e+01 1.100000e+01 8.500000e+01
         vertex -8.500000e+01 1.100000e+01 1.550000e+02
         vertex -8.500000e+01 4.000000e+00 1.550000e+02
      endloop
   endfacet
   facet normal 1.000000e+00 0.000000e+00 0.000000e+00
      outer loop
         vertex -8.500000e+01 1.100000e+01 8.500000e+01
         vertex -8.500000e+01 4.000000e+00 1.550000e+02
         vertex -8.500000e+01 -7.000000e+00 1.550000e+02
      endloop
   endfacet
   facet normal 1.000000e+00 0.000000e+00 0.000000e+00
      outer loop
         vertex -8.500000e+01 1.100000e+01 8.500000e+01
         vertex -8.500000e+01 -7.000000e+00 1.550000e+02
         vertex -8.500000e+01 -7.000000e+00 8.500000e+01
      endloop
   endfacet
   facet normal 1.000000e+00 0.000000e+00 0.000000e+00
      outer loop
         vertex -8.500000e+01 1.100000e+01 8.500000e+01
         vertex -8.500000e+01 -7.000000e+00 8.500000e+01
         vertex -8.500000e+01 4.000000e+00 8.500000e+01
      endloop
   endfacet
   facet normal -0.000000e+00 -0.000000e+00 -1.000000e+00
      outer loop
         vertex -8.500000e+01 4.000000e+00 3.500000e+01
         vertex 2.000000e+00 -1.200000e+01 3.500000e+01
         vertex -8.500000e+01 -1.200000e+01 3.500000e+01
      endloop
   endfacet
   facet normal -0.000000e+00 -0.000000e+00 -1.000000e+00
      outer loop
         vertex -8.500000e+01 4.000000e+00 3.500000e+01
         vertex 2.000000e+00 -7.000000e+00 3.500000e+01
         vertex 2.000000e+00 -1.200000e+01 3.500000e+01
      endloop
   endfacet
   facet normal -0.000000e+00 -0.000000e+00 -1.000000e+00
      outer loop
         vertex -8.500000e+01 4.000000e+00 3.500000e+01
         vertex 2.000000e+00 4.000000e+00 3.500000e+01
         vertex 2.000000e+00 -7.000000e+00 3.500000e+01
      endloop
   endfacet
   facet normal -0.000000e+00 -0.000000e+00 1.000000e+00
      outer loop
         vertex -8.500000e+01 -1.200000e+01 5.000000e+00
         vertex 2.000000e+00 4.000000e+00 5.000000e+00
         vertex -8.500000e+01 4.000000e+00 5.000000e+00
      endloop
   endfacet
   facet normal -0.000000e+00 -0.000000e+00 1.000000e+00
      outer loop
         vertex -8.500000e+01 -1.200000e+01 5.000000e+00
         vertex 2.000000e+00 -7.000000e+00 5.000000e+00
         vertex 2.000000e+00 4.000000e+00 5.000000e+00
      endloop
   endfacet
   facet normal -0.000000e+00 -0.000000e+00 1.000000e+00
      outer loop
         vertex -8.500000e+01 -1.200000e+01 5.000000e+00
         vertex 1.500000e+01 -7.000000e+00 5.000000e+00
         vertex 2.000000e+00 -7.000000e+00 5.000000e+00
      endloop
   endfacet
   facet normal -0.000000e+00 -0.000000e+00 1.000000e+00
      outer loop
         vertex -8.500000e+01 -1.200000e+01 5.000000e+00
         vertex 1.500000e+01 -1.200000e+01 5.000000e+00
         vertex 1.500000e+01 -7.000000e+00 5.000000e+00
      endloop
   endfacet
   facet normal 1.000000e+00 -1.224647e-16 -0.000000e+00
      outer loop
         vertex -8.500000e+01 -1.200000e+01 3.500000e+01
         vertex -8.500000e+01 4.000000e+00 5.000000e+00
         vertex -8.500000e+01 4.000000e+00 3.500000e+01
      endloop
   endfacet
   facet normal 1.000000e+00 -1.224647e-16 -0.000000e+00
      outer loop
         vertex -8.500000e+01 -1.200000e+01 3.500000e+01
         vertex -8.500000e+01 -1.200000e+01 5.000000e+00
         vertex -8.500000e+01 4.000000e+00 5.000000e+00
      endloop
   endfacet
   facet normal 1.836970e-16 1.000000e+00 -0.000000e+00
      outer loop
         vertex 2.000000e+00 -1.200000e+01 3.500000e+01
         vertex -8.500000e+01 -1.200000e+01 5.000000e+00
         vertex -8.500000e+01 -1.200000e+01 3.500000e+01
      endloop
   endfacet
   facet normal 1.836970e-16 1.000000e+00 -0.000000e+00
      outer loop
         vertex 2.000000e+00 -1.200000e+01 3.500000e+01
         vertex 1.500000e+01 -1.200000e+01 5.000000e+00
         vertex -8.500000e+01 -1.200000e+01 5.000000e+00
      endloop
   endfacet
   facet normal 1.836970e-16 1.000000e+00 -0.000000e+00
      outer loop
         vertex 2.000000e+00 -1.200000e+01 3.500000e+01
         vertex 1.500000e+01 -1.200000e+01 3.500000e+01
         vertex 1.500000e+01 -1.200000e+01 5.000000e+00
      endloop
   endfacet
   facet normal -0.000000e+00 -0.000000e+00 1.000000e+00
      outer loop
         vertex 1.800000e+01 -1.200000e+01 5.000000e+00
         vertex 1.500000e+01 -7.000000e+00 5.000000e+00
         vertex 1.500000e+01 -1.200000e+01 5.000000e+00
      endloop
   endfacet
   facet normal -0.000000e+00 -0.000000e+00 1.000000e+00
      outer loop
         vertex 1.800000e+01 -1.200000e+01 5.000000e+00
         vertex 1.800000e+01 -7.000000e+00 5.000000e+00
         vertex 1.500000e+01 -7.000000e+00 5.000000e+00
      endloop
   endfacet
   facet normal 1.836970e-16 1.000000e+00 -0.000000e+00
      outer loop
         vertex 1.800000e+01 -1.200000e+01 3.500000e+01
         vertex 1.500000e+01 -1.200000e+01 5.000000e+00
         vertex 1.500000e+01 -1.200000e+01 3.500000e+01
      endloop
   endfacet
   facet normal 1.836970e-16 1.000000e+00 -0.000000e+00
      outer loop
         vertex 1.800000e+01 -1.200000e+01 3.500000e+01
         vertex 1.800000e+01 -1.200000e+01 5.000000e+00
         vertex 1.500000e+01 -1.200000e+01 5.000000e+00
      endloop
   endfacet
   facet normal -0.000000e+00 -0.000000e+00 -1.000000e+00
      outer loop
         vertex 2.000000e+00 -7.000000e+00 7.100000e+01
         vertex 1.800000e+01 -1.200000e+01 7.100000e+01
         vertex 2.000000e+00 -1.200000e+01 7.100000e+01
      endloop
   endfacet
   facet normal -0.000000e+00 -0.000000e+00 -1.000000e+00
      outer loop
         vertex 2.000000e+00 -7.000000e+00 7.100000e+01
         vertex 1.800000e+01 -7.000000e+00 7.100000e+01
         vertex 1.800000e+01 -1.200000e+01 7.100000e+01
      endloop
   endfacet
   facet normal 1.000000e+00 -1.224647e-16 -0.000000e+00
      outer loop
         vertex 2.000000e+00 -1.200000e+01 7.100000e+01
         vertex 2.000000e+00 -7.000000e+00 3.500000e+01
         vertex 2.000000e+00 -7.000000e+00 7.100000e+01
      endloop
   endfacet
   facet normal 1.000000e+00 -1.224647e-16 -0.000000e+00
      outer loop
         vertex 2.000000e+00 -1.200000e+01 7.100000e+01
         vertex 2.000000e+00 -1.200000e+01 3.500000e+01
         vertex 2.000000e+00 -7.000000e+00 3.500000e+01
      endloop
   endfacet
   facet normal 1.836970e-16 1.000000e+00 -0.000000e+00
      outer loop
         vertex 1.800000e+01 -1.200000e+01 7.100000e+01
         vertex 2.000000e+00 -1.200000e+01 3.500000e+01
         vertex 2.000000e+00 -1.200000e+01 7.100000e+01
      endloop
   endfacet
   facet normal 1.836970e-16 1.000000e+00 -0.000000e+00
      outer loop
         vertex 1.800000e+01 -1.200000e+01 7.100000e+01
         vertex 1.500000e+01 -1.200000e+01 3.500000e+01
         vertex 2.000000e+00 -1.200000e+01 3.500000e+01
      endloop
   endfacet
   facet normal 1.836970e-16 1.000000e+00 -0.000000e+00
      outer loop
         vertex 1.800000e+01 -1.200000e+01 7.100000e+01
         vertex 1.800000e+01 -1.200000e+01 3.500000e+01
         vertex 1.500000e+01 -1.200000e+01 3.500000e+01
      endloop
   endfacet
   facet normal 2.249683e-32 1.000000e+00 -4.286264e-16
      outer loop
         vertex -8.500000e+01 1.100000e+01 5.000000e+00
         vertex -8.750000e+01 1.100000e+01 1.575000e+02
         vertex -8.500000e+01 1.100000e+01 8.500000e+01
      endloop
   endfacet
   facet normal 2.249683e-32 1.000000e+00 -4.286264e-16
      outer loop
         vertex -8.500000e+01 1.100000e+01 8.500000e+01
         vertex -8.750000e+01 1.100000e+01 1.575000e+02
         vertex -8.500000e+01 1.100000e+01 1.550000e+02
      endloop
   endfacet
   facet normal 2.249683e-32 1.000000e+00 -4.286264e-16
      outer loop
         vertex -8.750000e+01 1.100000e+01 1.575000e+02
         vertex 8.750000e+01 1.100000e+01 1.575000e+02
         vertex -8.500000e+01 1.100000e+01 1.550000e+02
      endloop
   endfacet
   facet normal 2.249683e-32 1.000000e+00 -4.286264e-16
      outer loop
         vertex -8.500000e+01 1.100000e+01 1.550000e+02
         vertex 8.750000e+01 1.100000e+01 1.575000e+02
         vertex 8.500000e+01 1.100000e+01 1.550000e+02
      endloop
   endfacet
   facet normal 2.249683e-32 1.000000e+00 -4.286264e-16
      outer loop
         vertex 8.750000e+01 1.100000e+01 1.575000e+02
         vertex 8.500000e+01 1.100000e+01 5.000000e+00
         vertex 8.500000e+01 1.100000e+01 1.550000e+02
      endloop
   endfacet
   facet normal 2.249683e-32 1.000000e+00 -4.286264e-16
      outer loop
         vertex -8.750000e+01 1.100000e+01 2.500000e+00
         vertex 8.500000e+01 1.100000e+01 5.000000e+00
         vertex 8.750000e+01 1.100000e+01 2.500000e+00
      endloop
   endfacet
   facet normal 2.249683e-32 1.000000e+00 -4.286264e-16
      outer loop
         vertex -8.750000e+01 1.100000e+01 2.500000e+00
         vertex -8.500000e+01 1.100000e+01 5.000000e+00
         vertex 8.500000e+01 1.100000e+01 5.000000e+00
      endloop
   endfacet
   facet normal 2.249683e-32 1.000000e+00 -4.286264e-16
      outer loop
         vertex -8.750000e+01 1.100000e+01 2.500000e+00
         vertex -8.750000e+01 1.100000e+01 1.575000e+02
         vertex -8.500000e+01 1.100000e+01 5.000000e+00
      endloop
   endfacet
   facet normal 2.249683e-32 1.000000e+00 -4.286264e-16
      outer loop
         vertex 8.500000e+01 1.100000e+01 5.000000e+00
         vertex 8.750000e+01 1.100000e+01 1.575000e+02
         vertex 8.750000e+01 1.100000e+01 2.500000e+00
      endloop
   endfacet
endsolid
